<svg width="106" height="20" viewBox="0 0 106 20" fill="none" xmlns="http://www.w3.org/2000/svg">
<g clip-path="url(#clip0_1_10)">
<path fill-rule="evenodd" clip-rule="evenodd" d="M41.1 0H43.5L38.7 16H36.6L33.6 4.1L30.7 16H28.6L23.8 0H26.2L29.7 12.3L32.8 0H34.5L37.6 12.3L41.1 0ZM46.6 16H44.4V0H46.6V5.3C47 4.8 47.4 4.4 48 4.1C48.6 3.8 49.2 3.7 50 3.7C51.5 3.7 52.6 4.2 53.4 5.1C54.2 6 54.6 7.4 54.6 9V16H52.4V9.8C52.4 8.5 52.2 7.5 51.7 6.8C51.2 6.1 50.6 5.8 49.6 5.8C49 5.8 48.5 5.9 48.1 6.2C47.7 6.5 47.3 6.8 47 7.3C46.8 7.6 46.7 8 46.7 8.4C46.6 8.8 46.6 9.5 46.6 10.5V16ZM66.8 16V14.5C66.2 15.1 65.6 15.5 64.9 15.8C64.2 16.1 63.5 16.2 62.7 16.2C60.9 16.2 59.4 15.6 58.2 14.4C57 13.2 56.4 11.7 56.4 9.8C56.4 8.9 56.6 8.1 56.9 7.4C57.2 6.6 57.6 6 58.2 5.4C58.8 4.8 59.5 4.3 60.2 4C60.9 3.7 61.7 3.5 62.7 3.5C63.5 3.5 64.3 3.6 65 3.9C65.7 4.2 66.3 4.6 66.9 5.2V3.9H69V16H66.8ZM58.7 9.9C58.7 11.1 59.1 12.1 59.9 13C60.7 13.8 61.7 14.2 62.9 14.2C64 14.2 64.9 13.8 65.7 13C66.5 12.2 66.9 11.2 66.9 10.1C66.9 8.9 66.5 7.9 65.7 7.1C64.9 6.3 63.9 5.8 62.8 5.8C61.7 5.8 60.7 6.2 59.9 7C59.1 7.7 58.7 8.7 58.7 9.9ZM74.9 16H72.6V2.2H68.5V0H79V2.2H74.9V16ZM87.9 16V14.5C87.3 15.1 86.7 15.5 86 15.8C85.3 16.1 84.6 16.2 83.8 16.2C82 16.2 80.5 15.6 79.3 14.4C78.1 13.2 77.5 11.7 77.5 9.8C77.5 8.9 77.7 8.1 78 7.4C78.3 6.6 78.7 6 79.3 5.4C79.9 4.8 80.6 4.3 81.3 4C82 3.7 82.8 3.5 83.8 3.5C84.6 3.5 85.4 3.6 86.1 3.9C86.8 4.2 87.4 4.6 88 5.2V3.9H90.2V16H87.9ZM79.8 9.9C79.8 11.1 80.2 12.1 81 13C81.8 13.8 82.8 14.2 84 14.2C85.1 14.2 86 13.8 86.8 13C87.6 12.2 88 11.2 88 10.1C88 8.9 87.6 7.9 86.8 7.1C86 6.1 85.1 5.7 84 5.7C82.9 5.7 81.9 6.1 81.1 6.9C80.2 7.7 79.8 8.7 79.8 9.9ZM94.8 14.5V19.9H92.6V3.9H94.8V5.4C95.4 4.8 96 4.4 96.7 4.1C97.4 3.8 98.1 3.7 98.9 3.7C100.7 3.7 102.2 4.3 103.4 5.5C104.6 6.7 105.2 8.2 105.2 10C105.2 10.8 105 11.6 104.7 12.4C104.4 13.2 104 13.8 103.4 14.4C102.8 15 102.1 15.5 101.4 15.8C100.7 16.1 99.9 16.3 98.9 16.3C98.1 16.3 97.3 16.2 96.6 15.9C96 15.6 95.4 15.1 94.8 14.5ZM94.7 9.9C94.7 11.1 95.1 12.1 95.9 13C96.7 13.8 97.7 14.3 98.8 14.3C99.9 14.3 100.9 13.9 101.7 13.1C102.5 12.3 102.9 11.3 102.9 10.1C102.9 8.9 102.5 7.9 101.7 7C100.9 6.2 99.9 5.8 98.7 5.8C97.6 5.8 96.7 6.2 95.9 7C95.1 7.8 94.7 8.8 94.7 9.9Z" fill="#4F4F4F"></path>
<path d="M0 11H2.4V16H0V11Z" fill="#F25022"></path>
<path d="M4.4 5.6H6.8V16H4.4V5.6Z" fill="#FFB902"></path>
<path d="M8.8 0H11.2V16H8.8V0Z" fill="#80BA01"></path>
<path d="M15.6 0H19.2V2.4H15.6V16H13.2V0H15.6Z" fill="#19A0E5"></path>
</g>
<defs>
<clipPath id="clip0_1_10">
<rect width="106" height="20" fill="white"></rect>
</clipPath>
</defs>
</svg>